<mxfile host="app.diagrams.net" agent="Mozilla/5.0 (Windows NT 10.0; Win64; x64) AppleWebKit/537.36 (KHTML, like Gecko) Chrome/114.0.0.0 YaBrowser/23.7.1.1266 (corp) Yowser/2.5 Safari/537.36" version="26.1.3">
  <diagram name="Страница — 1" id="E1jQX4m07dmZnOetyv6S">
    <mxGraphModel dx="875" dy="459" grid="0" gridSize="10" guides="1" tooltips="1" connect="1" arrows="1" fold="1" page="1" pageScale="1" pageWidth="1200" pageHeight="1600" math="0" shadow="0">
      <root>
        <mxCell id="0" />
        <mxCell id="1" parent="0" />
        <mxCell id="2Nk7u6I6C_ar8rQGjp3k-1" value="&lt;font style=&quot;font-size: 20px;&quot;&gt;&lt;b&gt;Фитнес приложение FitPro&lt;/b&gt;&lt;/font&gt;" style="rounded=0;whiteSpace=wrap;html=1;" vertex="1" parent="1">
          <mxGeometry x="465" y="229" width="275" height="147" as="geometry" />
        </mxCell>
        <mxCell id="2Nk7u6I6C_ar8rQGjp3k-3" value="" style="endArrow=classic;html=1;rounded=0;entryX=0.25;entryY=0;entryDx=0;entryDy=0;flowAnimation=1;" edge="1" parent="1">
          <mxGeometry width="50" height="50" relative="1" as="geometry">
            <mxPoint x="507" y="148" as="sourcePoint" />
            <mxPoint x="507" y="229" as="targetPoint" />
          </mxGeometry>
        </mxCell>
        <mxCell id="2Nk7u6I6C_ar8rQGjp3k-14" value="Конкуренция" style="edgeLabel;html=1;align=center;verticalAlign=middle;resizable=0;points=[];" vertex="1" connectable="0" parent="2Nk7u6I6C_ar8rQGjp3k-3">
          <mxGeometry x="-0.1358" y="2" relative="1" as="geometry">
            <mxPoint as="offset" />
          </mxGeometry>
        </mxCell>
        <mxCell id="2Nk7u6I6C_ar8rQGjp3k-4" value="" style="endArrow=classic;html=1;rounded=0;entryX=0.25;entryY=0;entryDx=0;entryDy=0;flowAnimation=1;" edge="1" parent="1">
          <mxGeometry width="50" height="50" relative="1" as="geometry">
            <mxPoint x="600" y="148" as="sourcePoint" />
            <mxPoint x="600" y="229" as="targetPoint" />
          </mxGeometry>
        </mxCell>
        <mxCell id="2Nk7u6I6C_ar8rQGjp3k-15" value="Технические&lt;div&gt;проблемы&lt;/div&gt;" style="edgeLabel;html=1;align=center;verticalAlign=middle;resizable=0;points=[];" vertex="1" connectable="0" parent="2Nk7u6I6C_ar8rQGjp3k-4">
          <mxGeometry x="-0.1358" y="-4" relative="1" as="geometry">
            <mxPoint as="offset" />
          </mxGeometry>
        </mxCell>
        <mxCell id="2Nk7u6I6C_ar8rQGjp3k-5" value="" style="endArrow=classic;html=1;rounded=0;entryX=0.25;entryY=0;entryDx=0;entryDy=0;flowAnimation=1;" edge="1" parent="1">
          <mxGeometry width="50" height="50" relative="1" as="geometry">
            <mxPoint x="691" y="148" as="sourcePoint" />
            <mxPoint x="691" y="229" as="targetPoint" />
          </mxGeometry>
        </mxCell>
        <mxCell id="2Nk7u6I6C_ar8rQGjp3k-16" value="Изменение&lt;div&gt;политики&lt;/div&gt;&lt;div&gt;компании&lt;/div&gt;" style="edgeLabel;html=1;align=center;verticalAlign=middle;resizable=0;points=[];" vertex="1" connectable="0" parent="2Nk7u6I6C_ar8rQGjp3k-5">
          <mxGeometry x="-0.0617" y="1" relative="1" as="geometry">
            <mxPoint as="offset" />
          </mxGeometry>
        </mxCell>
        <mxCell id="2Nk7u6I6C_ar8rQGjp3k-17" value="" style="endArrow=classic;html=1;rounded=0;flowAnimation=1;" edge="1" parent="1">
          <mxGeometry width="50" height="50" relative="1" as="geometry">
            <mxPoint x="276" y="300" as="sourcePoint" />
            <mxPoint x="464" y="302" as="targetPoint" />
          </mxGeometry>
        </mxCell>
        <mxCell id="2Nk7u6I6C_ar8rQGjp3k-24" value="Тренировки" style="edgeLabel;html=1;align=center;verticalAlign=middle;resizable=0;points=[];" vertex="1" connectable="0" parent="2Nk7u6I6C_ar8rQGjp3k-17">
          <mxGeometry x="0.0082" y="-1" relative="1" as="geometry">
            <mxPoint as="offset" />
          </mxGeometry>
        </mxCell>
        <mxCell id="2Nk7u6I6C_ar8rQGjp3k-18" value="" style="endArrow=classic;html=1;rounded=0;entryX=0.172;entryY=0.997;entryDx=0;entryDy=0;entryPerimeter=0;flowAnimation=1;" edge="1" parent="1">
          <mxGeometry width="50" height="50" relative="1" as="geometry">
            <mxPoint x="494" y="454.44" as="sourcePoint" />
            <mxPoint x="494.29999999999995" y="375.99899999999997" as="targetPoint" />
          </mxGeometry>
        </mxCell>
        <mxCell id="2Nk7u6I6C_ar8rQGjp3k-19" value="Пользователь" style="edgeLabel;html=1;align=center;verticalAlign=middle;resizable=0;points=[];" vertex="1" connectable="0" parent="2Nk7u6I6C_ar8rQGjp3k-18">
          <mxGeometry x="-0.0057" relative="1" as="geometry">
            <mxPoint as="offset" />
          </mxGeometry>
        </mxCell>
        <mxCell id="2Nk7u6I6C_ar8rQGjp3k-20" value="" style="endArrow=classic;html=1;rounded=0;entryX=0.172;entryY=0.997;entryDx=0;entryDy=0;entryPerimeter=0;flowAnimation=1;" edge="1" parent="1">
          <mxGeometry width="50" height="50" relative="1" as="geometry">
            <mxPoint x="602" y="454" as="sourcePoint" />
            <mxPoint x="602" y="376" as="targetPoint" />
          </mxGeometry>
        </mxCell>
        <mxCell id="2Nk7u6I6C_ar8rQGjp3k-21" value="Админ" style="edgeLabel;html=1;align=center;verticalAlign=middle;resizable=0;points=[];" vertex="1" connectable="0" parent="2Nk7u6I6C_ar8rQGjp3k-20">
          <mxGeometry x="-0.0057" relative="1" as="geometry">
            <mxPoint as="offset" />
          </mxGeometry>
        </mxCell>
        <mxCell id="2Nk7u6I6C_ar8rQGjp3k-22" value="" style="endArrow=classic;html=1;rounded=0;entryX=0.172;entryY=0.997;entryDx=0;entryDy=0;entryPerimeter=0;flowAnimation=1;" edge="1" parent="1">
          <mxGeometry width="50" height="50" relative="1" as="geometry">
            <mxPoint x="719" y="454" as="sourcePoint" />
            <mxPoint x="719" y="376" as="targetPoint" />
          </mxGeometry>
        </mxCell>
        <mxCell id="2Nk7u6I6C_ar8rQGjp3k-23" value="Тех.Поддержка" style="edgeLabel;html=1;align=center;verticalAlign=middle;resizable=0;points=[];" vertex="1" connectable="0" parent="2Nk7u6I6C_ar8rQGjp3k-22">
          <mxGeometry x="-0.0057" relative="1" as="geometry">
            <mxPoint as="offset" />
          </mxGeometry>
        </mxCell>
        <mxCell id="2Nk7u6I6C_ar8rQGjp3k-26" value="" style="endArrow=classic;html=1;rounded=0;exitX=1;exitY=0.19;exitDx=0;exitDy=0;exitPerimeter=0;flowAnimation=1;" edge="1" parent="1" source="2Nk7u6I6C_ar8rQGjp3k-1">
          <mxGeometry width="50" height="50" relative="1" as="geometry">
            <mxPoint x="767" y="290" as="sourcePoint" />
            <mxPoint x="918" y="257" as="targetPoint" />
          </mxGeometry>
        </mxCell>
        <mxCell id="2Nk7u6I6C_ar8rQGjp3k-27" value="Результат пользователя" style="edgeLabel;html=1;align=center;verticalAlign=middle;resizable=0;points=[];" vertex="1" connectable="0" parent="2Nk7u6I6C_ar8rQGjp3k-26">
          <mxGeometry x="0.2595" y="-2" relative="1" as="geometry">
            <mxPoint x="-29" y="-2" as="offset" />
          </mxGeometry>
        </mxCell>
        <mxCell id="2Nk7u6I6C_ar8rQGjp3k-28" value="" style="endArrow=classic;html=1;rounded=0;exitX=1;exitY=0.19;exitDx=0;exitDy=0;exitPerimeter=0;flowAnimation=1;" edge="1" parent="1">
          <mxGeometry width="50" height="50" relative="1" as="geometry">
            <mxPoint x="740" y="302" as="sourcePoint" />
            <mxPoint x="917" y="302" as="targetPoint" />
          </mxGeometry>
        </mxCell>
        <mxCell id="2Nk7u6I6C_ar8rQGjp3k-29" value="Доходы" style="edgeLabel;html=1;align=center;verticalAlign=middle;resizable=0;points=[];" vertex="1" connectable="0" parent="2Nk7u6I6C_ar8rQGjp3k-28">
          <mxGeometry x="0.2595" y="-2" relative="1" as="geometry">
            <mxPoint x="-29" y="-2" as="offset" />
          </mxGeometry>
        </mxCell>
        <mxCell id="2Nk7u6I6C_ar8rQGjp3k-30" value="" style="endArrow=classic;html=1;rounded=0;exitX=1;exitY=0.19;exitDx=0;exitDy=0;exitPerimeter=0;flowAnimation=1;" edge="1" parent="1">
          <mxGeometry width="50" height="50" relative="1" as="geometry">
            <mxPoint x="740" y="350" as="sourcePoint" />
            <mxPoint x="920" y="350" as="targetPoint" />
          </mxGeometry>
        </mxCell>
        <mxCell id="2Nk7u6I6C_ar8rQGjp3k-33" value="Расходы" style="edgeLabel;html=1;align=center;verticalAlign=middle;resizable=0;points=[];" vertex="1" connectable="0" parent="2Nk7u6I6C_ar8rQGjp3k-30">
          <mxGeometry x="-0.0347" y="3" relative="1" as="geometry">
            <mxPoint x="2" y="2" as="offset" />
          </mxGeometry>
        </mxCell>
        <mxCell id="2Nk7u6I6C_ar8rQGjp3k-36" value="" style="endArrow=classic;html=1;rounded=0;flowAnimation=1;" edge="1" parent="1">
          <mxGeometry width="50" height="50" relative="1" as="geometry">
            <mxPoint x="651" y="451" as="sourcePoint" />
            <mxPoint x="651" y="376" as="targetPoint" />
          </mxGeometry>
        </mxCell>
        <mxCell id="2Nk7u6I6C_ar8rQGjp3k-37" value="Тикеты" style="edgeLabel;html=1;align=center;verticalAlign=middle;resizable=0;points=[];" vertex="1" connectable="0" parent="2Nk7u6I6C_ar8rQGjp3k-36">
          <mxGeometry x="0.0082" y="-1" relative="1" as="geometry">
            <mxPoint as="offset" />
          </mxGeometry>
        </mxCell>
        <mxCell id="2Nk7u6I6C_ar8rQGjp3k-40" value="" style="endArrow=classic;html=1;rounded=0;entryX=0.331;entryY=1;entryDx=0;entryDy=0;entryPerimeter=0;flowAnimation=1;" edge="1" parent="1" target="2Nk7u6I6C_ar8rQGjp3k-1">
          <mxGeometry width="50" height="50" relative="1" as="geometry">
            <mxPoint x="556" y="452" as="sourcePoint" />
            <mxPoint x="601" y="424" as="targetPoint" />
          </mxGeometry>
        </mxCell>
        <mxCell id="2Nk7u6I6C_ar8rQGjp3k-42" value="ПО" style="edgeLabel;html=1;align=center;verticalAlign=middle;resizable=0;points=[];" vertex="1" connectable="0" parent="2Nk7u6I6C_ar8rQGjp3k-40">
          <mxGeometry x="0.0219" relative="1" as="geometry">
            <mxPoint as="offset" />
          </mxGeometry>
        </mxCell>
        <mxCell id="2Nk7u6I6C_ar8rQGjp3k-43" value="" style="endArrow=classic;html=1;rounded=0;entryX=0.002;entryY=0.795;entryDx=0;entryDy=0;entryPerimeter=0;flowAnimation=1;" edge="1" parent="1" target="2Nk7u6I6C_ar8rQGjp3k-1">
          <mxGeometry width="50" height="50" relative="1" as="geometry">
            <mxPoint x="278" y="346" as="sourcePoint" />
            <mxPoint x="405" y="330" as="targetPoint" />
          </mxGeometry>
        </mxCell>
        <mxCell id="2Nk7u6I6C_ar8rQGjp3k-44" value="Трамвы пользователя" style="edgeLabel;html=1;align=center;verticalAlign=middle;resizable=0;points=[];" vertex="1" connectable="0" parent="2Nk7u6I6C_ar8rQGjp3k-43">
          <mxGeometry x="0.0131" relative="1" as="geometry">
            <mxPoint as="offset" />
          </mxGeometry>
        </mxCell>
        <mxCell id="2Nk7u6I6C_ar8rQGjp3k-45" value="" style="endArrow=classic;html=1;rounded=0;flowAnimation=1;" edge="1" parent="1">
          <mxGeometry width="50" height="50" relative="1" as="geometry">
            <mxPoint x="280" y="260" as="sourcePoint" />
            <mxPoint x="465" y="260" as="targetPoint" />
          </mxGeometry>
        </mxCell>
        <mxCell id="2Nk7u6I6C_ar8rQGjp3k-46" value="Антропометрические данные" style="edgeLabel;html=1;align=center;verticalAlign=middle;resizable=0;points=[];" vertex="1" connectable="0" parent="2Nk7u6I6C_ar8rQGjp3k-45">
          <mxGeometry x="0.0082" y="-1" relative="1" as="geometry">
            <mxPoint as="offset" />
          </mxGeometry>
        </mxCell>
      </root>
    </mxGraphModel>
  </diagram>
</mxfile>
